HIERARCHY
ROOT root
{
	OFFSET 0.000000 0.000000 0.000000
	CHANNELS 6 Xposition Yposition Zposition Zrotation Yrotation Xrotation
	JOINT lhip
	{
		OFFSET 0.058581 -0.082280 -0.017664
		CHANNELS 3 Zrotation Yrotation Xrotation
		JOINT lknee
		{
			OFFSET 0.043451 -0.386469 0.008037
			CHANNELS 3 Zrotation Yrotation Xrotation
			JOINT lankle
			{
				OFFSET -0.014790 -0.426874 -0.037428
				CHANNELS 3 Zrotation Yrotation Xrotation
				JOINT ltoe
				{
					OFFSET 0.041054 -0.060286 0.122042
					CHANNELS 3 Zrotation Yrotation Xrotation
					End Site
					{
						OFFSET 0.000000 0.000000 0.000000
					}
				}
			}
		}
	}
	JOINT rhip
	{
		OFFSET -0.060310 -0.090513 -0.013543
		CHANNELS 3 Zrotation Yrotation Xrotation
		JOINT rknee
		{
			OFFSET -0.043257 -0.383688 -0.004843
			CHANNELS 3 Zrotation Yrotation Xrotation
			JOINT rankle
			{
				OFFSET 0.019056 -0.420046 -0.034562
				CHANNELS 3 Zrotation Yrotation Xrotation
				JOINT rtoe
				{
					OFFSET -0.034840 -0.062106 0.130323
					CHANNELS 3 Zrotation Yrotation Xrotation
					End Site
					{
						OFFSET 0.000000 0.000000 0.000000
					}
				}
			}
		}
	}
	JOINT lowerback
	{
		OFFSET 0.004439 0.124404 -0.038385
		CHANNELS 3 Zrotation Yrotation Xrotation
		JOINT upperback
		{
			OFFSET 0.004488 0.137956 0.026820
			CHANNELS 3 Zrotation Yrotation Xrotation
			JOINT chest
			{
				OFFSET -0.002265 0.056032 0.002855
				CHANNELS 3 Zrotation Yrotation Xrotation
				JOINT lowerneck
				{
					OFFSET -0.013390 0.211636 -0.033468
					CHANNELS 3 Zrotation Yrotation Xrotation
					JOINT upperneck
					{
						OFFSET 0.010113 0.088937 0.050410
						CHANNELS 3 Zrotation Yrotation Xrotation
						End Site
						{
							OFFSET 0.000000 0.000000 0.000000
						}
					}
				}
				JOINT lclavicle
				{
					OFFSET 0.071702 0.114000 -0.018898
					CHANNELS 3 Zrotation Yrotation Xrotation
					JOINT lshoulder
					{
						OFFSET 0.122921 0.045205 -0.019046
						CHANNELS 3 Zrotation Yrotation Xrotation
						JOINT lelbow
						{
							OFFSET 0.255332 -0.015649 -0.022946
							CHANNELS 3 Zrotation Yrotation Xrotation
							JOINT lwrist
							{
								OFFSET 0.265709 0.012698 -0.007375
								CHANNELS 3 Zrotation Yrotation Xrotation
								End Site
								{
									OFFSET 0.000000 0.000000 0.000000
								}
							}
						}
					}
				}
				JOINT rclavicle
				{
					OFFSET -0.082954 0.112472 -0.023707
					CHANNELS 3 Zrotation Yrotation Xrotation
					JOINT rshoulder
					{
						OFFSET -0.113228 0.046853 -0.008472
						CHANNELS 3 Zrotation Yrotation Xrotation
						JOINT relbow
						{
							OFFSET -0.260127 -0.014369 -0.031269
							CHANNELS 3 Zrotation Yrotation Xrotation
							JOINT rwrist
							{
								OFFSET -0.269108 0.006794 -0.006027
								CHANNELS 3 Zrotation Yrotation Xrotation
								End Site
								{
									OFFSET 0.000000 0.000000 0.000000
								}
							}
						}
					}
				}
			}
		}
	}
}
MOTION
Frames: 17
Frame Time: 0.033333
-0.079818 0.782458 1.010756 91.343087 0.907575 87.254665 0.551171 1.262615 4.040937 -3.392982 -5.294581 1.661592 1.470602 4.193958 -9.433139 0.000000 -0.000000 0.000000 -2.931715 -3.657623 -0.507483 -3.691477 2.000310 2.221129 2.777166 -7.673948 -6.324013 0.000000 -0.000000 0.000000 -0.516855 3.362455 8.178637 -1.357859 -2.886844 0.008285 -0.742872 0.776735 2.058632 -1.178096 5.208040 4.809686 -0.321680 1.686702 29.480613 -13.128270 -26.552252 -9.405309 -40.787478 -42.194247 10.905524 27.687334 -35.238948 -27.310809 40.950483 -5.926938 -3.582281 15.788600 30.623755 -5.100533 36.876934 46.156991 9.138053 -32.044860 32.564890 -33.874569 -45.072949 5.932880 -0.806971 
-0.078123 0.780034 1.010735 91.404415 0.798457 87.303652 0.680203 1.573199 3.937461 -3.513692 -5.318357 1.933016 1.337054 3.867732 -9.602974 0.000000 -0.000000 0.000000 -3.039377 -4.062315 -0.736222 -3.387437 1.954816 2.667941 2.513899 -7.487252 -6.458786 0.000000 -0.000000 0.000000 -0.397944 3.402346 7.989247 -1.488504 -2.705235 -0.028043 -0.786340 0.925352 1.804501 -1.289120 5.167474 4.771038 -0.125168 2.043227 29.344554 -13.208899 -26.589382 -9.349591 -40.954932 -41.848669 10.910254 27.680466 -35.148114 -27.264034 41.591086 -6.435408 -3.962052 15.863478 31.001443 -4.711163 36.618645 46.369402 8.631477 -31.410458 31.953660 -33.461130 -43.784807 5.944591 0.403623 
-0.076615 0.777772 1.011070 91.732311 0.684030 87.206235 0.668555 1.668109 4.034124 -3.480432 -5.724377 2.145279 1.506603 3.784386 -9.819517 0.000000 -0.000000 0.000000 -3.113253 -4.650872 -0.511916 -3.296284 2.126845 2.664211 2.453017 -7.220375 -6.780057 0.000000 -0.000000 0.000000 -0.271743 3.427169 8.106840 -1.601926 -2.695976 -0.184037 -0.760432 1.006771 1.976974 -1.259246 5.209371 3.960594 -0.181116 2.404167 29.689415 -13.038793 -26.438225 -9.713621 -41.233267 -41.626696 11.116086 27.237455 -35.310829 -26.284446 42.386133 -6.091041 -4.665314 15.140767 31.203715 -5.112744 37.338690 46.459445 8.816102 -31.301972 31.362983 -33.236038 -43.219683 5.712002 0.423892 
-0.075052 0.775210 1.011330 91.962573 0.744690 87.163055 0.806656 1.408972 4.338010 -3.313271 -5.972368 1.861585 1.419243 3.951622 -9.726897 0.000000 -0.000000 0.000000 -2.909940 -4.533522 -0.294203 -3.296567 1.734713 2.687125 2.242686 -7.214372 -6.849001 0.000000 -0.000000 0.000000 -0.231299 3.498657 8.039052 -1.523630 -2.548434 -0.024105 -0.711661 0.990567 1.698350 -0.803125 4.920224 3.789098 -0.218891 2.416170 29.554697 -13.063229 -26.440210 -9.573755 -41.533139 -41.664416 11.107541 27.495025 -34.972143 -26.282153 42.500395 -5.975657 -5.036950 15.431730 31.373369 -4.943559 37.161765 46.565652 8.665544 -30.944796 31.109870 -32.133634 -43.003554 6.701221 -0.085089 
-0.073983 0.772503 1.011466 92.204567 0.861509 87.399549 1.190504 1.175993 4.186740 -3.451464 -5.769182 1.776533 1.251195 3.854578 -9.784710 0.000000 -0.000000 0.000000 -2.525368 -4.102268 -0.423628 -3.375931 1.367028 2.761375 2.195722 -7.549902 -7.129586 0.000000 -0.000000 0.000000 -0.022330 3.620733 7.747182 -1.461116 -2.285789 -0.042615 -0.695136 0.990848 1.816542 -0.596948 5.033127 3.712492 -0.058667 2.263071 28.679929 -13.283187 -26.398794 -9.426155 -41.418279 -41.899257 11.298923 27.629951 -34.904014 -26.764400 43.492207 -5.777411 -4.959257 15.179194 31.193490 -5.169321 37.066424 46.612575 8.911785 -30.439195 30.933251 -31.962331 -44.930062 6.655141 -0.912405 
-0.072734 0.770279 1.011597 92.685602 0.734021 87.415095 1.153745 1.356204 4.378144 -3.278901 -6.530918 1.508491 1.224500 3.746710 -9.639891 0.000000 -0.000000 0.000000 -2.483593 -4.403999 -0.128384 -3.477439 1.527254 2.419182 1.976849 -7.848078 -6.979816 0.000000 -0.000000 0.000000 -0.032866 3.438243 7.616810 -1.511012 -2.382149 0.048620 -0.565728 0.886178 1.845080 -0.595747 4.952439 3.437715 0.356459 2.651464 28.144527 -13.013368 -26.150468 -9.677673 -41.657167 -41.709144 11.120854 27.854108 -34.837761 -26.520543 43.049980 -5.212024 -5.622542 15.008569 31.412341 -4.787370 36.772744 47.482575 8.176929 -29.609700 30.580423 -31.907682 -43.228478 5.751997 -0.099540 
-0.070908 0.767676 1.012076 93.330907 0.509072 87.559726 1.027981 1.280120 4.388809 -3.186961 -7.212374 1.304679 1.170391 4.019493 -9.544872 0.000000 -0.000000 0.000000 -2.716386 -4.517699 0.108855 -3.196481 1.289156 2.111808 1.940732 -8.292945 -7.130778 0.000000 -0.000000 0.000000 -0.119067 3.431444 7.590722 -1.517193 -2.424293 -0.485774 -0.633090 0.970732 2.095425 -0.216649 4.724081 3.105296 0.714557 2.278100 28.138555 -12.952838 -26.513671 -9.444533 -40.819064 -41.754313 11.009722 27.202858 -34.503894 -27.054458 44.175427 -5.047967 -5.989174 15.002272 31.613683 -4.754106 36.960118 47.326920 8.464866 -29.982394 29.906902 -32.575352 -42.724557 4.961793 0.131167 
-0.070772 0.764754 1.012340 93.834990 0.574714 87.782468 1.344650 1.008614 3.923768 -3.297187 -6.712612 1.661034 0.979079 3.396920 -9.716517 0.000000 -0.000000 0.000000 -2.398041 -4.122843 0.097491 -3.230981 0.830474 1.947440 1.805973 -8.520687 -7.532568 0.000000 -0.000000 0.000000 -0.041346 3.662173 7.367820 -1.323088 -2.205760 -0.171868 -0.385671 0.696683 1.594524 0.019775 4.573764 2.872304 0.823287 2.318888 28.018327 -13.137380 -26.490326 -9.430903 -41.503934 -42.007630 10.956213 27.533795 -33.700562 -27.784896 40.723816 -5.096097 -5.088365 15.082848 31.640133 -4.338399 36.016669 47.422013 7.909492 -29.339296 29.766405 -32.194740 -42.461524 5.004842 -0.452478 
-0.070226 0.761729 1.012369 94.307164 0.654725 87.809535 1.689302 1.315479 3.754009 -3.268996 -7.402189 1.922025 0.809862 3.204354 -9.739795 0.000000 -0.000000 0.000000 -2.125290 -4.436654 0.189736 -3.236928 0.808435 1.856411 1.546820 -8.603320 -7.311345 0.000000 -0.000000 0.000000 0.142564 3.584364 7.800826 -1.331086 -2.253877 -0.841304 -0.178972 0.687670 1.644029 0.172734 4.439578 2.738818 1.036334 2.768130 27.281220 -12.905202 -26.634511 -9.685244 -41.613345 -41.660056 10.864221 27.066288 -33.417000 -26.760407 40.150331 -3.531434 -5.447279 14.642804 31.748281 -4.819807 36.781598 47.413630 8.320146 -28.729495 29.569747 -31.338668 -43.219798 4.718790 -0.186080 
-0.070792 0.759357 1.012286 94.561401 0.305243 88.128681 1.303041 0.657882 3.429629 -3.087839 -7.302556 1.779635 0.881646 3.614511 -9.550373 0.000000 -0.000000 0.000000 -2.390369 -4.332435 -0.204415 -3.105335 0.739708 2.041449 1.636174 -8.862302 -7.745347 0.000000 -0.000000 0.000000 0.114520 3.596749 7.522738 -1.364902 -2.403982 -0.617360 -0.287772 0.879102 1.078291 0.514175 4.567670 2.714526 1.238425 2.727885 26.662146 -12.968702 -26.972543 -9.359876 -40.629111 -41.462705 10.240069 26.675515 -32.920203 -27.241748 39.700341 -3.692426 -6.124033 14.701451 32.314460 -4.287171 36.257333 47.720680 7.645640 -28.532742 28.608830 -31.609899 -42.636929 5.118116 0.024498 
-0.070158 0.756612 1.012186 94.862039 0.338993 87.919452 1.614820 0.408619 3.700409 -3.245839 -7.223868 1.738386 0.651423 3.511057 -9.540913 0.000000 -0.000000 0.000000 -2.236917 -4.099225 0.410511 -2.957765 0.454415 1.482990 1.305267 -9.367984 -7.472614 0.000000 -0.000000 0.000000 0.377280 3.666667 7.303509 -1.215560 -2.356300 0.222387 -0.305213 0.867874 0.909539 0.629519 4.449707 1.875156 1.209407 2.236296 26.324963 -12.679090 -27.150167 -9.900185 -40.366603 -41.665827 10.090551 25.931731 -31.894962 -27.047423 38.358607 -3.635805 -5.344105 14.567783 32.560500 -4.956503 36.022578 47.938884 7.822960 -27.910638 27.935940 -31.520427 -41.762940 5.106485 0.360045 
-0.070094 0.753624 1.012437 95.231989 0.236613 88.018762 1.666490 0.872623 3.411095 -3.105560 -7.860235 2.050037 0.580918 3.235440 -9.635928 0.000000 -0.000000 0.000000 -2.122855 -4.254913 0.261855 -3.003931 0.872261 1.685116 1.121493 -9.778717 -7.648540 0.000000 -0.000000 0.000000 0.488535 3.571786 7.437972 -1.197403 -2.385554 -0.277499 -0.231755 0.933161 0.875549 0.722317 4.363607 1.862440 1.613434 2.530496 25.866531 -12.772523 -27.503271 -9.652789 -38.994917 -41.411394 9.317475 24.688584 -31.555525 -26.099842 37.454385 -2.833787 -6.124795 14.520449 32.957149 -4.597835 35.748664 48.002185 7.475404 -27.676055 27.698401 -31.331057 -41.096687 4.912553 0.793839 
-0.068351 0.750681 1.012726 95.284509 0.178202 87.806877 1.876766 1.031747 3.888978 -3.132358 -8.189664 1.802607 0.496013 3.249983 -9.647456 0.000000 -0.000000 0.000000 -2.027080 -4.582842 0.697140 -3.013038 0.631062 1.507173 1.108838 -9.323045 -7.686754 0.000000 -0.000000 0.000000 0.462139 3.750747 7.431617 -1.113616 -2.285772 -0.360959 0.088543 1.040830 0.788021 0.998431 4.298780 1.691432 1.849758 2.431913 25.733541 -12.946295 -27.620603 -9.544292 -39.313296 -40.935866 9.205868 24.860094 -31.530960 -26.090026 34.316719 -2.776712 -6.544813 14.473046 33.029850 -4.336130 36.026105 47.906805 7.353138 -27.601111 27.794039 -30.346328 -38.981594 4.712911 0.737925 
-0.069156 0.747878 1.012625 95.572491 -0.176889 88.163971 1.503514 0.251808 3.405925 -3.057716 -8.054635 1.846579 0.779168 3.954566 -9.439725 0.000000 -0.000000 0.000000 -2.227936 -4.505630 0.316387 -2.979068 0.723674 1.513272 1.049903 -9.760445 -7.795985 0.000000 -0.000000 0.000000 0.345553 4.061936 6.995713 -1.001599 -2.281094 -0.582250 0.031861 0.770190 1.143529 1.331680 4.138526 1.358936 1.894249 2.383852 25.600208 -12.870849 -27.815374 -9.326590 -38.353448 -40.994217 9.106238 24.295564 -31.307972 -26.677660 38.548779 -3.200372 -6.805884 14.375666 33.189461 -4.446041 35.798801 48.209078 7.449134 -27.307514 27.407454 -31.061511 -39.515514 5.435218 0.882207 
-0.067003 0.744001 1.012810 96.194648 -0.050061 87.892114 2.006430 0.675558 3.463734 -3.087499 -8.322825 2.336689 0.193264 3.087984 -9.590519 0.000000 -0.000000 0.000000 -1.925570 -4.822529 0.913668 -2.859259 0.449457 1.334066 0.872372 -9.677901 -8.096528 0.000000 -0.000000 0.000000 0.440519 3.825005 6.921507 -0.800058 -2.560220 -0.122215 0.174406 0.951900 0.873759 1.501956 4.094782 1.281164 1.897070 2.391111 25.080485 -13.013535 -27.793486 -9.171793 -38.527472 -40.844598 8.877943 24.554240 -31.238300 -26.434423 38.293831 -3.265603 -6.529803 14.397954 33.295281 -4.275605 35.777329 48.433885 7.207560 -26.935039 27.361230 -30.157152 -40.421621 5.048388 1.461948 
-0.066347 0.741166 1.013181 96.493653 -0.266418 87.842099 1.753654 0.243744 3.731916 -2.779695 -9.127235 1.904243 0.395582 3.868577 -9.661904 0.000000 -0.000000 0.000000 -2.047821 -5.095202 1.125390 -2.818112 0.177241 1.294347 0.907978 -9.368559 -8.319753 0.000000 -0.000000 0.000000 0.595409 3.920468 7.095801 -0.865249 -2.619653 -0.329534 0.216107 0.911920 0.938031 1.538345 4.352514 1.102876 2.070733 2.234143 24.599097 -12.998418 -27.820895 -9.492223 -38.656713 -40.423223 8.863201 24.345551 -31.594720 -26.046227 37.558589 -2.399092 -6.187010 14.233570 33.333551 -4.693390 36.644145 48.330954 7.624095 -27.122140 27.660075 -29.645874 -39.967915 4.152186 1.642002 
-0.065520 0.738105 1.013297 96.788769 -0.258566 87.847650 2.048311 0.241736 3.575349 -2.904510 -8.923977 2.173398 0.262549 3.405963 -9.922891 0.000000 -0.000000 0.000000 -1.902709 -5.205859 0.911432 -2.652785 0.237583 1.874665 0.697309 -9.584585 -8.689302 0.000000 -0.000000 0.000000 0.517075 3.919475 6.640659 -0.594737 -2.630898 0.284406 0.406648 0.838389 0.726071 1.875568 4.213256 1.011835 2.085231 2.413405 24.696717 -13.484399 -27.818579 -9.188488 -38.439947 -40.454871 8.636406 24.514869 -31.532552 -26.513291 36.877287 -2.713803 -5.986645 14.559455 33.519982 -4.190502 35.687825 48.587294 7.187162 -26.675824 27.702394 -29.147203 -39.449093 4.346488 1.347954 
